<?xml version="1.0" encoding="UTF-8"?>
<svg id="_图层_2" data-name="图层 2" xmlns="http://www.w3.org/2000/svg" viewBox="0 0 276.7 97.03">
  <defs>
    <style>
      .cls-1 {
        fill: #fff;
      }

      .cls-2 {
        opacity: .3;
      }
    </style>
  </defs>
  <g id="_レイヤー_1" data-name="レイヤー 1">
    <g class="cls-2">
      <path class="cls-1" d="M133.91,53.52c-.82-.33-1.65-.65-2.47-.98-2.22-.88-4.46-1.71-6.75-2.39-1.62-.48-3.27-.85-4.95-1.07-.3-.04-.56-.14-.82-.31-.28-.18-.59-.33-.89-.47-1.66-.75-3.29-1.55-4.84-2.5-.36-.22-.68-.49-.96-.81-.43-.49-.91-.94-1.36-1.41-.02-.03-.07-.03-.12-.04-.15,.09-.08,.26-.11,.39-.03,.14-.09,.28-.11,.43-.23,1.47-.57,2.92-1,4.35-.8,2.63-1.82,5.16-3.07,7.61-1.24,2.43-2.64,4.76-4.21,6.99-.92,1.31-1.88,2.59-2.88,3.85-.74,.92-1.51,1.82-2.3,2.7-.94,1.06-1.9,2.1-2.88,3.12-1.5,1.55-3.07,3.03-4.67,4.47-1.37,1.23-2.77,2.42-4.2,3.57-1.86,1.5-3.76,2.94-5.72,4.31-2.31,1.61-4.67,3.13-7.11,4.53-1.94,1.12-3.92,2.16-5.99,3.02-.82,.34-1.66,.6-2.49,.9-.34,.12-.7,.14-1.06,.16-.86,.06-1.68-.11-2.47-.42-.47-.18-.95-.36-1.42-.53-.15-.06-.31-.1-.45-.15-.07,.05-.12,.06-.14,.09-.22,.55-.66,.86-1.19,1.07-.96,.39-1.97,.63-2.98,.85-.33,.07-.66,.13-1.01,.2-.07,.2-.13,.4-.2,.59-.19,.57-.6,.95-1.12,1.24-.21,.12-.44,.13-.67,.14-.79,.03-1.56-.09-2.33-.21-1.78-.26-3.55-.58-5.33-.77-1.47-.16-2.95-.19-4.43-.12-.38,.02-.76,.01-1.14,.03-.54,.03-.95-.16-1.19-.66-.02-.04-.05-.06-.11-.13-.1,.03-.21,.06-.32,.1-.34,.14-.67,.11-.97-.09-.51-.35-1.08-.58-1.66-.78-.84-.3-1.63-.7-2.42-1.1-2.61-1.34-5.23-2.68-7.83-4.05-.9-.47-1.75-1.03-2.62-1.54-.4-.24-.64-.58-.8-1.02-1.51-4.15-3.19-8.23-5.07-12.23-.86-1.82-1.76-3.61-2.78-5.34-.06-.11-.14-.21-.19-.33-.13-.27-.34-.41-.63-.48-.9-.21-1.8-.46-2.71-.66-1.22-.27-2.43-.54-3.66-.76-1.47-.27-2.96-.49-4.44-.73-.18-.03-.36-.07-.53-.1-.14-.59-.14-1.45,.01-1.95,.3,.03,.62,.05,.92,.1,1.79,.3,3.59,.59,5.37,.92,1.91,.35,3.81,.77,5.68,1.31,.12,.03,.25,.06,.37,.08,.46,.06,.76,.31,.99,.7,.82,1.38,1.6,2.78,2.32,4.22,1.88,3.74,3.52,7.59,5.05,11.48,.34,.87,.68,1.73,.98,2.61,.14,.41,.38,.68,.75,.89,1.17,.63,2.32,1.31,3.5,1.92,2.44,1.26,4.89,2.5,7.34,3.74,.49,.25,1.01,.43,1.51,.65,.39,.17,.78,.33,1.16,.52,.4,.2,.77,.44,.94,.92,.65-.27,1.31-.22,1.95-.23,1.39,0,2.79,0,4.18,.07,.91,.04,1.81,.18,2.71,.31,1.46,.21,2.92,.45,4.39,.66,.21,.03,.42,.04,.63,.04,.22,0,.34-.15,.31-.38-.06-.38-.23-.73-.44-1.04-.64-.93-1.46-1.64-2.51-2.07-.61-.25-1.25-.4-1.9-.5-.29-.04-.59-.09-.88-.11-.42-.03-.84-.09-1.25,.09-.33,.15-.66,.02-.98-.11-1.25-.51-2.53-.94-3.84-1.3-1-.27-1.99-.57-2.99-.83-.5-.13-.95-.34-1.35-.67-1.6-1.33-3.32-2.47-5.14-3.48-.39-.22-.59-.53-.57-.98,.03-.64,.62-1.07,1.25-.89,.16,.05,.31,.13,.46,.21,1.79,1.01,3.51,2.13,5.08,3.45,.27,.22,.55,.37,.88,.47,1.16,.32,2.32,.64,3.48,.98,.83,.25,1.65,.52,2.47,.8,.63,.22,1.29,.22,1.94,.24,.04,0,.08,0,.12-.02,1.42-.4,2.88-.42,4.33-.5,.19,0,.37-.02,.54-.03,.1-.16,.01-.23-.08-.28-.57-.36-1.15-.71-1.71-1.1-.25-.17-.5-.2-.78-.14-.27,.06-.54,.1-.8,.18-.75,.23-1.5,.19-2.26,.03-1.78-.37-3.54-.83-5.28-1.35-.38-.11-.75-.29-1.1-.48-1.28-.7-2.51-1.49-3.71-2.31-.07-.05-.14-.09-.21-.15-.4-.35-.49-.88-.21-1.31,.26-.41,.82-.57,1.29-.34,.17,.08,.32,.2,.48,.31,.9,.59,1.81,1.18,2.72,1.76,.57,.36,1.19,.63,1.86,.79,1.41,.35,2.83,.71,4.24,1.07,.25,.06,.49,.1,.82,.07-.09-.11-.12-.18-.18-.22-.57-.41-1.14-.81-1.7-1.22-.23-.17-.49-.23-.77-.27-.84-.11-1.66-.3-2.44-.63-1.36-.58-2.46-1.48-3.33-2.66-.25-.34-.54-.65-.87-.91-.43-.34-.84-.71-1.27-1.05-.48-.37-.98-.74-1.49-1.08-.98-.67-1.97-1.32-2.95-1.97-1.05-.69-2.17-1.22-3.39-1.55-.08-.02-.17-.03-.25-.06-.71-.24-.78-.71-.7-1.24,.06-.36,.4-.67,.8-.7,.21-.01,.42,.02,.62,.07,1.1,.26,2.12,.71,3.09,1.28,.53,.31,1.05,.64,1.56,.97,.83,.54,1.68,1.06,2.49,1.64,.67,.47,1.32,.99,1.95,1.51,1.29,1.06,2.58,2.12,3.83,3.23,.54,.48,1.12,.62,1.8,.54,.04,0,.07-.03,.15-.07,.15-.33,.21-.7,.16-1.08-.15-1.11-.41-2.2-.88-3.23-.36-.78-.85-1.47-1.55-1.97-.92-.65-1.74-1.41-2.58-2.15-1.27-1.14-2.56-2.27-3.82-3.44-.79-.73-1.52-1.53-2.28-2.29-.31-.31-.49-.67-.58-1.1-.38-1.76-.92-3.47-1.65-5.12-.2-.44-.41-.88-.64-1.31-.55-1.04-1.27-1.93-2.18-2.69-1.49-1.25-3.17-2.17-4.98-2.87-.93-.36-1.87-.67-2.8-1.01-.6-.22-1.22-.31-1.86-.36-1.8-.13-3.56-.47-5.31-.87-2.72-.62-5.39-1.43-8.05-2.25-.89-.27-1.77-.55-2.66-.83-.14-.04-.27-.1-.39-.15-.12-.59-.11-1.49,0-1.97,.28-.06,.53,.09,.79,.17,1.64,.5,3.26,1.03,4.91,1.51,1.7,.5,3.41,.98,5.13,1.43,1.6,.41,3.22,.72,4.85,.92,.1,.01,.2,0,.33-.01-.04-.2-.06-.37-.11-.52-.46-1.31-.75-2.67-1.05-4.02-.17-.76-.3-1.52-.39-2.29-.11-.98-.22-1.97-.2-2.96,.02-1.06,.01-2.11,0-3.17,0-.97,.12-1.93,.27-2.89,.26-1.67,.67-3.31,1.21-4.91,1.35-3.99,3.33-7.62,6.16-10.76,2.47-2.74,5.41-4.83,8.88-6.14,1.14-.43,2.32-.72,3.52-.97,1.06-.22,2.12-.3,3.2-.28,.82,.01,1.65,0,2.47,0,1.06-.01,2.1,.08,3.14,.27,1.68,.31,3.32,.76,4.89,1.42,2.98,1.24,5.62,2.99,7.96,5.22,2.36,2.25,4.31,4.82,5.83,7.7,.22,.41,.42,.83,.62,1.23,.25-.02,.27-.22,.35-.36,.46-.81,.88-1.64,1.37-2.43,1.65-2.69,3.64-5.08,6.02-7.15,1.09-.95,2.23-1.81,3.47-2.55,.19-.12,.41-.2,.54-.39-.02-.19-.17-.21-.28-.26-.4-.19-.81-.37-1.2-.57-.53-.28-1.01-.62-1.41-1.06-.48-.52-.77-1.11-.76-1.83,0-.08-.01-.17-.02-.24-.17-.2-.41-.24-.62-.32-1.08-.44-1.87-1.2-2.47-2.19-.19-.31-.32-.64-.38-1-.09-.56,.06-1.04,.44-1.46,.31-.33,.7-.54,1.1-.74,.99-.48,2.03-.85,3.07-1.18,.4-.13,.81-.25,1.23-.38,.03-.14,.06-.28,.08-.43,.13-.88,.61-1.52,1.37-1.94,.36-.2,.77-.24,1.17-.24,.8,0,1.61,.01,2.41,.05,1.41,.06,2.83,.11,4.24,.22,1.4,.1,2.79,.01,4.18-.04,.53-.02,1.05-.09,1.58-.15,.88-.1,1.76-.21,2.64-.32,.1-.01,.21-.01,.32-.02,.51-.05,.91,.14,1.18,.58,.04,.07,.09,.14,.16,.25,.12-.06,.22-.11,.33-.17,.42-.24,.84-.25,1.27-.03,.58,.31,1.21,.5,1.85,.66,1.23,.31,2.41,.78,3.59,1.23,3.22,1.22,6.43,2.46,9.6,3.82,1.01,.43,1.99,.93,2.98,1.4,.42,.2,.69,.53,.89,.95,1.01,2.16,2.11,4.28,3.23,6.39,2.08,3.92,4.3,7.76,6.76,11.47,.54,.81,1.13,1.58,1.69,2.38,.15,.21,.35,.3,.58,.34,.65,.1,1.29,.22,1.94,.3,1.78,.21,3.57,.41,5.35,.6,.52,.06,1.05,.09,1.58,.13v2.41c-.14-.04-.28-.11-.42-.12-1.05-.1-2.11-.17-3.16-.28-1.26-.13-2.52-.28-3.78-.44-.86-.11-1.71-.25-2.57-.37-.43-.06-.74-.27-1-.61-1.01-1.36-1.98-2.74-2.9-4.16-2.72-4.21-5.15-8.59-7.45-13.04-.61-1.18-1.2-2.38-1.78-3.57-.15-.3-.34-.52-.65-.65-.47-.2-.92-.42-1.39-.62-3.22-1.4-6.49-2.66-9.76-3.91-1.44-.55-2.87-1.12-4.36-1.53-.51-.14-1-.33-1.5-.5-.45-.16-.83-.42-1.07-.85-.01-.03-.07-.03-.15-.05-.35,.27-.77,.34-1.22,.38-.82,.07-1.64,.17-2.46,.27-1.26,.15-2.52,.23-3.79,.25-1.63,.02-3.25-.07-4.88-.16-1.16-.06-2.32-.1-3.48-.14-.17,0-.34,0-.51,.02-.16,.02-.26,.16-.24,.32,.01,.1,.04,.21,.07,.31,.13,.41,.36,.76,.64,1.08,1.06,1.24,2.39,1.98,3.99,2.27,1.07,.19,2.15,.13,3.23,.13,.16,0,.34-.05,.48-.13,.44-.25,.89-.22,1.35-.08,2.05,.61,4.15,1,6.25,1.34,1.96,.32,3.9,.69,5.79,1.34,1.2,.41,2.4,.8,3.47,1.51,.19,.13,.41,.23,.61,.33,.41,.21,.83,.42,1.25,.62,.4,.2,.79,.41,1.19,.59,.62,.28,1.24,.53,1.86,.81,.31,.14,.59,.32,.88,.5,.16,.1,.31,.23,.43,.37,.3,.34,.33,.88,.08,1.23-.25,.35-.69,.49-1.12,.34-.1-.03-.19-.09-.29-.13-1.98-.91-3.95-1.83-5.93-2.74-.5-.23-1.01-.42-1.53-.61-.56-.21-1.11-.41-1.62-.72-.31-.19-.66-.27-1.03-.25-.82,.03-1.65,.07-2.47,.07-.99,0-1.99,.01-2.98-.08-1.49-.14-2.98-.36-4.47-.54-.36-.04-.72-.06-1.08-.07-.23,0-.34,.17-.26,.39,.03,.08,.07,.15,.11,.23,.29,.51,.57,1.04,1.08,1.38,.07,.05,.11,.13,.16,.19,.32,.45,.77,.71,1.28,.88,.18,.06,.36,.12,.53,.2,.27,.13,.54,.22,.84,.27,.33,.05,.67,.12,.99,.22,1.34,.4,2.7,.7,4.09,.85,1.56,.17,3.09,.49,4.63,.71,.31,.04,.61,.15,.87,.36,.3,.23,.62,.44,.92,.67,.83,.63,1.69,1.2,2.59,1.72,.18,.1,.38,.2,.47,.41,.19,.4,.4,.79,.56,1.2,.23,.59,.44,1.19,.65,1.78,.3,.86,.62,1.71,.88,2.57,.42,1.42,.81,2.84,1.19,4.27,.14,.53,.2,1.08,.29,1.62,.12,.75,.26,1.49,.71,2.14,.29,.41,.5,.88,.75,1.32,.15,.26,.29,.51,.44,.77,.45,.74,.93,1.46,1.28,2.26,.06,.13,.14,.26,.22,.38,.25,.39,.51,.77,.76,1.17,.43,.7,.84,1.42,1.28,2.11,.47,.73,1,1.42,1.47,2.15,.34,.53,.79,.91,1.33,1.24,1.82,1.08,3.73,1.98,5.68,2.8,.17,.07,.36,.11,.55,.15,1.37,.24,2.73,.55,4.08,.93,2.66,.76,5.26,1.73,7.83,2.76,.39,.16,.79,.29,1.18,.44v2.54ZM82.9,9.38c-.29,.05-.43,.07-.57,.1-1.2,.23-2.4,.49-3.6,.69-1.33,.22-2.67,.36-4.03,.35-.44,0-.89,0-1.33,0-.07,0-.14,.05-.23,.09,.2,.35,.51,.5,.8,.66,.82,.45,1.69,.78,2.59,.99,.7,.16,1.41,.17,2.12-.06,1-.32,2.01-.6,3.05-.76,.26-.04,.52-.13,.8-.21-.07-.62,.01-1.19,.4-1.84Zm-13.46-2.43c.21,.42,.51,.72,.9,.95,.44,.26,.93,.39,1.43,.49,.77,.16,1.55,.16,2.33,.17,.67,.02,1.35-.05,2.02-.09,.13,0,.3,.01,.36-.17-.53-.41-1.09-.79-1.58-1.24-.51-.47-.95-1.01-1.45-1.55-1.05,.2-2.08,.56-3.1,.96-.31,.12-.63,.22-.91,.49Zm-18.71,83.22c.46,.45,.9,.82,1.27,1.24,.37,.42,.68,.9,1.03,1.37,.4,.03,.79-.07,1.18-.16,.68-.16,1.35-.34,2.02-.52,.11-.03,.24-.07,.25-.27-.07-.05-.14-.12-.23-.17-.76-.4-1.53-.81-2.3-1.2-.18-.09-.39-.17-.6-.19-.8-.08-1.6-.13-2.39-.19-.05,0-.11,.04-.22,.09ZM84.22,8.75c.53,.13,1.53,.19,1.77,.11-.4-.22-.84-.29-1.26-.39-.2-.05-.36,.07-.51,.28Z"/>
      <path class="cls-1" d="M31.46,81.43c0,.06,0,.17-.02,.27-.09,.46-.48,.8-.93,.82-.41,.01-.81-.29-.92-.73-.05-.2-.08-.42-.07-.63,.08-1.38-.59-2.48-1.31-3.56-.1-.15-.27-.26-.41-.39-.3-.26-.4-.6-.31-.97,.1-.38,.37-.61,.75-.69,.12-.02,.26-.02,.37,.01,.18,.06,.35,.15,.51,.25,.15,.11,.31,.23,.42,.38,.96,1.28,1.77,2.63,1.84,4.29,.01,.3,.05,.59,.08,.93Z"/>
    </g>
    <g>
      <path class="cls-1" d="M48.95,46.84c0-.98-.04-1.64-.25-2.58h5.08c-.16,.78-.25,1.56-.25,2.58v.82h11.36c1.97,0,3.24-.04,4.51-.16-.12,.9-.16,1.64-.16,3.03v3.81c0,1.23,.04,2.17,.16,3.16h-4.43v-5.78h-26.73v5.78h-4.43c.12-.94,.16-1.76,.16-3.16v-3.81c0-1.31-.04-2.09-.16-3.03,1.27,.12,2.5,.16,4.51,.16h10.62v-.82Zm-5.04,18.16c-2.17,0-3.03,.04-4.3,.12,.12-.98,.16-1.64,.16-3.65v-4.39c0-1.35-.04-2.17-.12-3.08,.86,.12,1.76,.16,3.08,.16h18c1.23,0,2.09-.04,2.95-.16-.08,.7-.12,1.48-.12,3.2v4.26c0,2.17,.04,2.75,.16,3.65-1.31-.08-2.38-.12-4.31-.12h-5.82c-.41,1.19-.82,2.17-1.27,3.12h10.54c1.93,0,2.79-.04,3.85-.16-.12,1.19-.16,2.3-.16,3.98v6.15c0,1.56,.04,2.62,.21,4.02h-4.51v-1.72h-21.2v1.72h-4.55c.16-1.43,.25-2.66,.25-4.06v-6.15c0-1.84-.04-2.79-.21-3.94,1.15,.12,2.17,.16,3.81,.16h7.26c.49-.98,.86-1.84,1.35-3.12h-5.04Zm-2.87,11.4h21.2v-4.39h-21.2v4.39Zm2.99-15.09h15.25v-3.48h-15.25v3.48Z"/>
      <path class="cls-1" d="M82.98,58.36c0,7.67-.66,12.34-2.26,16.32-1.19,2.95-2.3,4.96-3.98,7.26-1.19-1.56-2.13-2.54-3.81-3.85,1.72-2.21,2.54-3.65,3.44-6.11,.7-1.76,1.15-3.61,1.39-5.7,.16-1.56,.45-6.44,.45-8.28v-8.86c0-1.72-.08-2.91-.29-4.31h5.29c-.21,1.07-.25,2.05-.25,4.43v9.1Zm13.04-11.69c-.16,1.44-.25,2.62-.25,4.72v20.99c0,2.46,.08,3.9,.25,5.25h-5.25c.16-1.39,.25-2.83,.25-5.21v-21.03c0-2.25-.08-3.44-.25-4.72h5.25Zm13.08-1.84c-.21,1.35-.29,2.5-.29,4.84v26.57c0,2.67,.08,4.02,.29,5.49h-5.29c.16-1.39,.25-2.95,.25-5.49v-26.57c0-2.3-.04-3.44-.25-4.84h5.29Z"/>
      <path class="cls-1" d="M135.95,45.08c-.21,1.35-.29,3.36-.29,6.35,0,.57,0,.7,.04,2.67,4.92-.04,9.43-.53,12.01-1.39l.41,4.96q-.82,.04-2.67,.25c-3.44,.45-6.4,.66-9.63,.74,.08,3.2,.16,5.04,.45,9.06,2.3,.7,4.22,1.56,6.4,2.79,1.48,.82,2.17,1.31,5.29,3.49,.53,.37,.74,.53,1.23,.82l-3.2,4.63c-.74-.9-1.39-1.52-2.91-2.71-1.97-1.52-3.24-2.34-5.41-3.36-.53-.29-.86-.45-1.31-.74,.04,.33,.08,.7,.08,1.31,0,4.59-3.24,7.01-9.35,7.01-4.18,0-7.09-1.19-8.61-3.53-.62-1.02-1.02-2.38-1.02-3.65,0-4.26,4.22-7.34,10.13-7.34,1.52,0,2.99,.16,3.81,.41q-.04-.12-.04-.41c-.16-1.48-.53-12.67-.57-17.79-.04-2.05-.04-2.46-.2-3.61l5.37,.04Zm-8.28,25.75c-3.08,0-5.12,1.23-5.12,3.03,0,.98,.45,1.64,1.39,2.13,.78,.37,1.89,.62,2.99,.62,1.56,0,2.91-.41,3.73-1.11,.57-.49,.86-1.27,.86-2.3,0-.74-.04-1.89-.04-1.93-1.52-.37-2.25-.45-3.81-.45Z"/>
      <path class="cls-1" d="M168.18,46.1c-.25,1.19-.33,2.38-.49,5.54-.16,3.81-.41,12.14-.41,15.05,0,3.9,.25,5.37,1.07,6.6,.94,1.35,2.91,2.13,5.49,2.13,4.43,0,8-2.5,9.92-7.01,.9-2.13,1.44-4.06,1.89-6.89,2.21,1.8,2.95,2.25,4.96,3.16-1.64,5.54-2.87,8.2-4.88,10.46-3.08,3.48-7.13,5.21-12.3,5.21-2.83,0-5.45-.66-7.17-1.8-2.83-1.89-4.02-5.04-4.02-10.54,0-2.13,.08-6.23,.33-16.52,.04-1.23,.04-2.09,.04-2.67,0-1.15-.04-1.72-.16-2.79l5.74,.08Z"/>
      <path class="cls-1" d="M212.82,45.69c-.12,.37-.25,.82-.33,1.27-.08,.53-.12,.74-.25,1.39q-.12,.86-.7,3.94c-.16,.9-.16,.98-.29,1.52,1.19-.08,1.76-.12,2.54-.12,2.71,0,4.71,.74,6.07,2.17,1.39,1.56,1.93,3.53,1.93,7.26,0,7.05-1.19,12.67-3.16,14.92-1.15,1.35-2.38,1.84-4.55,1.84-1.89,0-3.57-.33-6.31-1.19,.04-.82,.08-1.39,.08-1.8,0-1.07-.08-1.89-.41-3.48,2.21,.98,4.55,1.6,5.99,1.6,1.19,0,1.85-.78,2.46-2.79,.66-2.13,1.07-5.86,1.07-9.35,0-3.77-.94-4.88-4.18-4.88-.82,0-1.43,.04-2.38,.12-1.23,5-1.6,6.23-2.5,8.9-1.44,4.1-2.54,6.72-4.92,11.52q-.21,.41-.62,1.23c-.12,.25-.12,.29-.33,.7l-4.76-2.62c1.23-1.64,2.87-4.59,4.26-7.71,1.76-4.02,2.34-5.74,3.98-11.6-2.09,.25-5.99,.94-7.34,1.31l-.49-4.84c1.52,0,6.48-.49,8.73-.82,.74-4.43,1.07-6.93,1.07-8.28v-.78l5.33,.57Zm13.57,5.25c4.1,4.8,6.68,9.68,8.45,15.99l-4.67,2.38c-.78-3.53-1.72-6.23-3.28-9.31-1.48-3.03-2.79-4.92-4.72-7.01l4.22-2.05Z"/>
      <path class="cls-1" d="M262.39,46.06c-.16,1.19-.16,1.52-.21,4.84,1.8,0,3.69,0,5.66-.04-1.11-2.34-2.13-4.02-3.73-5.9l2.95-1.31c1.56,1.89,2.67,3.65,3.77,6.03l-2.58,1.19c.86-.04,.94-.04,1.85-.04,2.21-.04,2.83-.04,3.94-.16l.04,4.72c-1.48-.12-3.69-.21-6.85-.21q-.78,0-5,.04v7.17c.9,1.89,1.31,3.57,1.31,5.78,0,4.51-2.13,8.36-6.11,11.11-1.72,1.15-3.61,2.01-7.42,3.32-1.11-2.42-1.64-3.24-2.91-4.63,6.68-1.15,11.07-4.26,11.73-8.36-1.19,1.89-3.32,2.91-6.03,2.91-1.89,0-3.32-.45-4.71-1.48-1.93-1.39-2.83-3.2-2.83-5.54,0-4.35,3.4-7.46,8.12-7.46,1.8,0,3.32,.45,4.26,1.23-.04-.12-.04-.21-.04-.25v-.25c-.04-1.11-.04-2.25-.04-3.48-4.96,.12-8.45,.25-10.46,.37-6.89,.45-7.22,.49-8.36,.7l-.16-4.92c.9,.08,1.27,.08,2.01,.08,1.02,0,1.68,0,6.97-.21,1.97-.04,5.29-.12,9.92-.25l-.04-2.58c-.04-1.27-.04-1.56-.21-2.42h5.17Zm-12.34,19.06c0,1.85,1.48,3.2,3.49,3.2,2.25,0,3.98-1.56,3.98-3.69,0-.78-.25-1.39-.78-1.85-.7-.61-1.68-.98-2.67-.98-2.34,0-4.02,1.39-4.02,3.32Zm23.78-15.17c-1.19-2.46-2.25-4.14-3.65-5.86l2.75-1.27c1.56,1.8,2.71,3.53,3.77,5.66l-2.87,1.48Z"/>
    </g>
    <g>
      <path class="cls-1" d="M157.09,32.8c-.94-1-1.32-1.38-1.96-1.94-.44,.62-.72,.94-1.24,1.48-.94,.98-1.48,1.42-2.52,2.12-.48-.82-.94-1.44-1.66-2.22,1.62-1,2.6-1.88,3.46-3.02-1.12-.86-1.6-1.2-3.02-2.08,.7-1.72,1.18-3.28,1.66-5.32h-.44c-.46,0-.9,.04-1.34,.1v-2.52c.54,.08,1.02,.1,1.78,.1h.46c.24-1.46,.38-2.82,.38-3.5,0-.06,0-.12-.02-.2l2.8,.2c-.06,.28-.08,.36-.22,1.3-.12,.88-.18,1.26-.36,2.2h1.76c.68,0,1.16-.02,1.62-.06q-.02,.5-.06,1.36c-.08,1.24-.24,2.56-.48,3.86-.3,1.58-.62,2.58-1.22,3.84,.84,.68,1.22,1,2.22,1.96l-1.6,2.34Zm-2.72-10.98c-.2,1.02-.66,2.62-1.2,4.26,.64,.44,.8,.56,1.24,.86,.68-1.52,.9-2.4,1.26-5.12h-1.3Zm7.5,1.56c0-.82-.02-1.2-.1-1.88h1.14c.44-.44,1.22-1.46,1.74-2.28h-3.86c-.84,0-1.6,.04-2.28,.1v-2.7c.5,.08,1.28,.12,2.32,.12h4.38c.98,0,1.4-.02,1.82-.08l1.28,1.6c-.18,.2-.22,.26-.42,.54-1.44,2.08-2.16,3-3.34,4.18v1.18h2.04c.86,0,1.42-.04,2.06-.12v2.72c-.68-.08-1.26-.12-2.06-.12h-2.04v5.38c0,1.9-.58,2.34-3.06,2.34-.52,0-1.12-.02-1.94-.06-.14-1.1-.28-1.66-.68-2.66,.92,.12,1.64,.2,2.1,.2,.76,0,.9-.06,.9-.4v-4.8h-1.7c-.76,0-1.46,.04-2.16,.12v-2.7c.5,.08,.98,.1,2.1,.1h1.76v-.78Z"/>
      <path class="cls-1" d="M171.69,18.84c.62,.06,1.3,.08,2.14,.08,1.16,0,3.02-.08,3.82-.18q-.06-.16-.26-.64c-.04-.06-.12-.26-.26-.6-.2-.5-.26-.64-.42-.92l2.98-.4c.08,.54,.24,1.06,.72,2.26,2-.28,4.04-.7,5.4-1.16l.24,2.5c-2.36,.5-4.12,.86-4.76,.94,.28,.64,.3,.68,.62,1.34,2.42-.44,3.6-.72,4.68-1.12l.24,2.56c-.26,.04-1.06,.2-2.42,.5-.92,.18-1,.2-1.4,.28,1,1.68,1.26,2.04,2.64,3.68l-2.34,1.38c-1.3-.62-2.56-.86-4.4-.86-2.5,0-3.86,.56-3.86,1.56,0,.58,.46,.96,1.36,1.18,.48,.1,1.38,.18,2.06,.18,2.1,0,4.92-.58,6.28-1.28l.42,2.9c-.54,.1-.58,.1-1.36,.3-1.78,.44-3.62,.66-5.46,.66-2.82,0-4.78-.6-5.72-1.78-.48-.58-.76-1.36-.76-2.14,0-1.32,.9-2.56,2.3-3.16,1.12-.5,2.38-.72,4.08-.72,1.24,0,2.26,.1,3.24,.32-.12-.14-.16-.18-.4-.52-.24-.34-.26-.38-.58-.9q-.14-.24-.26-.42c-1.84,.26-3.8,.38-7.72,.5-.36,.02-.52,.02-.88,.06l-.1-2.56c.56,.08,.88,.1,1.92,.1,2.1,0,3.76-.1,5.72-.36-.12-.22-.18-.34-.32-.64-.18-.4-.22-.46-.32-.7-2.06,.2-2.72,.22-5.92,.26-.3,0-.46,0-.8,.02l-.14-2.5Z"/>
      <path class="cls-1" d="M190.39,18.52c.46,.02,.7,.02,.78,.02,.38,0,.5,0,3.34-.18,1.38-.1,4.82-.26,10.32-.5,1.76-.08,1.88-.1,2.24-.18l.16,3.06c-.24-.02-.3-.02-.48-.02-1.3,0-2.92,.46-4.26,1.22-2.26,1.28-3.62,3.14-3.62,4.96,0,1.48,.92,2.56,2.6,3.04,.92,.26,2.22,.46,2.96,.46,.12,0,.26,0,.5-.02l-.42,3.24c-.26-.06-.34-.06-.7-.1-2.24-.26-3.64-.6-4.84-1.24-2.08-1.08-3.16-2.82-3.16-5.1,0-2.7,1.44-4.9,4.22-6.5-2,.22-2.08,.24-6.54,.58-1.1,.08-2.18,.22-2.94,.36l-.16-3.1Zm13.94,6.98c-.5-1.12-.96-1.86-1.66-2.78l1.7-.76c.7,.84,1.14,1.52,1.68,2.7l-1.72,.84Zm2.34-1.1c-.5-1.06-.94-1.8-1.62-2.68l1.66-.72c.74,.86,1.02,1.3,1.66,2.56l-1.7,.84Z"/>
      <path class="cls-1" d="M210.29,18.68c.48,.04,.68,.04,1.04,.04,.44,0,2.44-.06,8.08-.22-.04-1.5-.04-1.6-.14-2.28h3.02c-.1,.86-.1,.9-.12,2.22,3.38-.02,4.92-.06,5.72-.14l.02,2.76c-.86-.06-1.34-.08-3.48-.08-1.06,0-1.22,0-2.24,.02l.02,.46v.66l-.02,1.64v.46c.52,1,.74,1.88,.74,3.02,0,2.3-1.06,4.16-3.16,5.52-1,.66-2.02,1.1-3.8,1.64-.58-1.36-.84-1.8-1.66-2.7,2.12-.36,3.52-.9,4.52-1.76,.62-.52,.94-1,1.08-1.64-.7,.78-1.56,1.12-2.82,1.12-.9,0-1.7-.28-2.4-.8-.9-.7-1.34-1.6-1.34-2.74,0-2.18,1.76-3.74,4.24-3.74,.78,0,1.42,.16,1.88,.44q0-.08-.02-.32v-1.22c-4.76,.14-7.36,.28-9.08,.52l-.08-2.88Zm5.9,7.04c0,.76,.64,1.32,1.52,1.32,.98,0,1.74-.66,1.74-1.5,0-.72-.62-1.22-1.56-1.22s-1.7,.6-1.7,1.4Z"/>
      <path class="cls-1" d="M232.09,22.9c-.92,0-1.44,.02-1.94,.1v-2.72c.54,.08,.94,.1,1.94,.1h2.8v-1.96c0-1.18-.02-1.68-.12-2.4h2.94c-.1,.68-.12,1.22-.12,2.4v13.54c0,1.26,.02,1.8,.12,2.52h-2.94c.1-.7,.12-1.32,.12-2.56v-1.96c-1.1,.6-2.12,1.1-3.42,1.66-.44,.18-.66,.28-.94,.42l-.82-2.82c.6-.1,1.02-.22,1.66-.46,1.64-.62,2.34-.92,3.52-1.52v-4.34h-2.8Zm10.28,8.14c0,.42,.24,.52,1.26,.52,1.28,0,1.7-.12,1.9-.52,.22-.42,.32-1.76,.32-3.82,.88,.44,1.6,.74,2.5,1-.12,3.04-.48,4.52-1.28,5.16-.6,.48-1.42,.62-3.52,.62-1.68,0-2.36-.06-2.82-.26-.72-.34-1-.88-1-1.98v-13.34c0-1.2-.02-1.74-.12-2.4h2.88c-.1,.7-.12,1.26-.12,2.4v3.58c1.76-1.02,3.44-2.32,4.1-3.16l1.88,2.22c-.22,.14-.38,.26-.6,.46-.56,.44-2.18,1.56-3.16,2.16-.76,.46-1.38,.8-2.22,1.24v6.12Z"/>
      <path class="cls-1" d="M268.06,33.68c-.56-.08-1.22-.12-2.3-.12h-12.46v.88h-2.78c.08-.74,.12-1.34,.12-2.38v-13.26c0-.86-.02-1.48-.08-2.14,.64,.06,1.16,.08,2.2,.08h12.6c1.22,0,1.84-.04,2.46-.12v2.68c-.68-.08-1.22-.1-2.4-.1h-12.12v11.9h12.44c1.22,0,1.8-.02,2.32-.1v2.68Zm-3.2-3.14c-1.68-1.72-2.52-2.5-4.02-3.76-1.84,1.82-3.2,2.82-5.54,4.1-.56-.74-1.14-1.36-1.9-2.06,2.16-1.02,3.78-2.12,5.42-3.68-1.48-1.14-2.56-1.86-4.38-2.98l1.84-1.84c2.22,1.44,2.66,1.74,4.32,2.92,1.14-1.4,2.08-3.02,2.38-4.04l2.6,1.2c-.32,.48-.36,.54-.66,1.06-.64,1.16-1.36,2.18-2.28,3.32,1.6,1.26,2.5,2.02,4.28,3.66l-2.06,2.1Z"/>
    </g>
  </g>
</svg>