<?xml version="1.0" encoding="UTF-8"?>
<svg id="_图层_2" data-name="图层 2" xmlns="http://www.w3.org/2000/svg" viewBox="0 0 202.81 60">
  <defs>
    <style>
      .cls-1 {
        fill: #fff;
      }

      .cls-2 {
        opacity: .3;
      }
    </style>
  </defs>
  <g id="_レイヤー_1" data-name="レイヤー 1">
    <g class="cls-2">
      <path class="cls-1" d="M82.81,33.09c-.51-.2-1.02-.4-1.53-.61-1.37-.54-2.76-1.06-4.17-1.48-1-.3-2.02-.53-3.06-.66-.19-.02-.35-.09-.51-.19-.17-.11-.36-.2-.55-.29-1.02-.46-2.03-.96-2.99-1.54-.23-.14-.42-.3-.59-.5-.27-.3-.56-.58-.84-.87-.02-.02-.05-.02-.08-.03-.09,.06-.05,.16-.07,.24-.02,.09-.06,.17-.07,.26-.15,.91-.35,1.81-.62,2.69-.49,1.63-1.13,3.19-1.9,4.71-.76,1.5-1.63,2.94-2.6,4.32-.57,.81-1.17,1.6-1.78,2.38-.46,.57-.94,1.12-1.42,1.67-.58,.65-1.18,1.3-1.78,1.93-.93,.96-1.9,1.87-2.89,2.76-.85,.76-1.71,1.49-2.6,2.21-1.15,.93-2.33,1.82-3.54,2.66-1.43,.99-2.89,1.93-4.39,2.8-1.2,.69-2.43,1.34-3.71,1.87-.5,.21-1.03,.37-1.54,.55-.21,.07-.43,.08-.65,.1-.53,.04-1.04-.07-1.53-.26-.29-.11-.58-.22-.88-.33-.1-.04-.19-.06-.28-.09-.04,.03-.08,.04-.08,.06-.14,.34-.41,.53-.73,.66-.6,.24-1.22,.39-1.84,.52-.2,.04-.41,.08-.63,.13-.04,.12-.08,.25-.12,.37-.12,.36-.37,.59-.69,.77-.13,.07-.27,.08-.42,.09-.49,.02-.96-.06-1.44-.13-1.1-.16-2.19-.36-3.3-.48-.91-.1-1.83-.12-2.74-.07-.23,.01-.47,0-.71,.02-.33,.02-.59-.1-.74-.41-.01-.02-.03-.04-.07-.08-.06,.02-.13,.04-.2,.06-.21,.09-.41,.07-.6-.05-.32-.21-.67-.36-1.03-.48-.52-.19-1.01-.43-1.5-.68-1.62-.83-3.23-1.66-4.84-2.5-.55-.29-1.08-.63-1.62-.95-.25-.15-.4-.36-.5-.63-.93-2.57-1.97-5.09-3.14-7.56-.53-1.12-1.09-2.23-1.72-3.3-.04-.07-.08-.13-.12-.2-.08-.17-.21-.25-.39-.29-.56-.13-1.11-.28-1.67-.41-.75-.17-1.51-.33-2.26-.47-.91-.17-1.83-.3-2.74-.45-.11-.02-.23-.04-.33-.06-.09-.37-.08-.89,0-1.2,.19,.02,.38,.03,.57,.06,1.11,.19,2.22,.36,3.32,.57,1.18,.22,2.35,.48,3.51,.81,.08,.02,.15,.04,.23,.05,.28,.04,.47,.19,.61,.44,.51,.85,.99,1.72,1.44,2.61,1.16,2.31,2.18,4.69,3.12,7.1,.21,.54,.42,1.07,.61,1.61,.09,.25,.23,.42,.46,.55,.72,.39,1.43,.81,2.16,1.19,1.51,.78,3.02,1.55,4.54,2.31,.3,.15,.62,.27,.94,.4,.24,.1,.48,.21,.72,.32,.25,.12,.48,.27,.58,.57,.4-.17,.81-.14,1.21-.14,.86,0,1.73,0,2.59,.04,.56,.03,1.12,.11,1.67,.19,.91,.13,1.81,.28,2.71,.41,.13,.02,.26,.02,.39,.02,.14,0,.21-.09,.19-.23-.04-.24-.14-.45-.27-.64-.39-.57-.9-1.01-1.55-1.28-.38-.16-.77-.25-1.17-.31-.18-.03-.36-.05-.54-.07-.26-.02-.52-.06-.77,.06-.21,.09-.41,.01-.61-.07-.78-.31-1.57-.58-2.37-.8-.62-.17-1.23-.35-1.85-.51-.31-.08-.59-.21-.83-.42-.99-.82-2.06-1.53-3.18-2.15-.24-.13-.36-.33-.35-.61,.02-.4,.39-.66,.77-.55,.1,.03,.19,.08,.28,.13,1.11,.63,2.17,1.32,3.14,2.13,.16,.14,.34,.23,.55,.29,.72,.2,1.44,.39,2.15,.61,.51,.15,1.02,.32,1.53,.49,.39,.13,.8,.13,1.2,.15,.03,0,.05,0,.08-.01,.88-.25,1.78-.26,2.68-.31,.12,0,.23-.01,.33-.02,.06-.1,0-.14-.05-.17-.35-.23-.71-.44-1.06-.68-.16-.11-.31-.13-.48-.09-.17,.04-.33,.06-.5,.11-.46,.14-.93,.12-1.4,.02-1.1-.23-2.19-.51-3.26-.83-.24-.07-.46-.18-.68-.3-.79-.43-1.55-.92-2.3-1.43-.04-.03-.09-.06-.13-.09-.25-.21-.3-.55-.13-.81,.16-.25,.51-.35,.8-.21,.11,.05,.2,.13,.3,.19,.56,.36,1.12,.73,1.68,1.09,.35,.23,.74,.39,1.15,.49,.87,.22,1.75,.44,2.62,.66,.15,.04,.3,.06,.51,.04-.05-.07-.07-.11-.11-.14-.35-.25-.7-.5-1.05-.75-.14-.11-.3-.14-.47-.16-.52-.07-1.03-.18-1.51-.39-.84-.36-1.52-.91-2.06-1.64-.16-.21-.33-.4-.54-.57-.27-.21-.52-.44-.79-.65-.3-.23-.61-.45-.92-.67-.61-.41-1.22-.81-1.83-1.22-.65-.43-1.34-.75-2.09-.96-.05-.01-.1-.02-.15-.04-.44-.15-.48-.44-.44-.76,.03-.23,.25-.42,.49-.43,.13,0,.26,.01,.39,.04,.68,.16,1.31,.44,1.91,.79,.33,.19,.65,.4,.97,.6,.52,.33,1.04,.66,1.54,1.01,.42,.29,.82,.61,1.21,.94,.8,.66,1.6,1.31,2.37,2,.34,.3,.69,.38,1.11,.34,.02,0,.05-.02,.09-.04,.09-.2,.13-.43,.1-.67-.09-.69-.25-1.36-.54-2-.22-.48-.53-.91-.96-1.22-.57-.4-1.08-.87-1.59-1.33-.79-.71-1.59-1.4-2.36-2.13-.49-.45-.94-.94-1.41-1.42-.19-.19-.3-.41-.36-.68-.23-1.09-.57-2.15-1.02-3.16-.12-.27-.26-.54-.4-.81-.34-.64-.79-1.19-1.35-1.66-.92-.77-1.96-1.34-3.08-1.77-.57-.22-1.16-.41-1.73-.62-.37-.14-.76-.19-1.15-.22-1.11-.08-2.2-.29-3.28-.54-1.68-.38-3.33-.88-4.98-1.39-.55-.17-1.1-.34-1.65-.51-.09-.03-.17-.06-.24-.09-.07-.36-.07-.92,0-1.22,.18-.04,.33,.06,.49,.1,1.01,.31,2.02,.64,3.03,.93,1.05,.31,2.11,.61,3.17,.88,.99,.26,1.99,.44,3,.57,.06,0,.12,0,.21,0-.03-.12-.04-.23-.07-.32-.29-.81-.46-1.65-.65-2.48-.1-.47-.19-.94-.24-1.42-.07-.61-.14-1.22-.12-1.83,.01-.65,0-1.31,0-1.96,0-.6,.07-1.19,.17-1.79,.16-1.04,.42-2.05,.75-3.04,.83-2.47,2.06-4.71,3.81-6.66,1.53-1.7,3.35-2.99,5.49-3.8,.71-.27,1.44-.45,2.18-.6,.66-.14,1.31-.18,1.98-.17,.51,0,1.02,0,1.53,0,.65,0,1.3,.05,1.94,.17,1.04,.19,2.05,.47,3.03,.88,1.84,.77,3.48,1.85,4.92,3.23,1.46,1.39,2.66,2.98,3.61,4.76,.13,.25,.26,.51,.38,.76,.15-.01,.17-.14,.22-.22,.28-.5,.55-1.01,.85-1.5,1.02-1.66,2.25-3.14,3.72-4.42,.67-.58,1.38-1.12,2.15-1.58,.12-.07,.26-.13,.33-.24-.01-.12-.1-.13-.17-.16-.25-.12-.5-.23-.74-.35-.33-.17-.62-.38-.87-.66-.29-.32-.47-.68-.47-1.13,0-.05,0-.1-.01-.15-.1-.12-.25-.15-.38-.2-.67-.27-1.16-.74-1.53-1.35-.12-.19-.2-.4-.23-.62-.06-.35,.04-.64,.27-.9,.19-.21,.43-.34,.68-.46,.61-.3,1.25-.52,1.9-.73,.25-.08,.5-.16,.76-.24,.02-.09,.03-.18,.05-.26,.08-.54,.38-.94,.85-1.2,.22-.12,.47-.15,.72-.15,.5,0,.99,0,1.49,.03,.87,.04,1.75,.07,2.62,.14,.86,.06,1.72,0,2.59-.03,.33-.01,.65-.06,.98-.09,.54-.06,1.09-.13,1.63-.19,.06,0,.13,0,.2-.01,.32-.03,.56,.09,.73,.36,.03,.04,.05,.09,.1,.15,.07-.04,.14-.07,.2-.1,.26-.15,.52-.16,.78-.02,.36,.19,.75,.31,1.14,.41,.76,.19,1.49,.48,2.22,.76,1.99,.76,3.98,1.52,5.94,2.36,.62,.27,1.23,.58,1.84,.87,.26,.12,.43,.33,.55,.59,.62,1.34,1.31,2.65,2,3.95,1.29,2.43,2.66,4.8,4.18,7.09,.33,.5,.7,.98,1.04,1.47,.09,.13,.21,.19,.36,.21,.4,.06,.8,.14,1.2,.18,1.1,.13,2.21,.25,3.31,.37,.32,.04,.65,.06,.98,.08v1.49c-.09-.03-.17-.07-.26-.08-.65-.06-1.3-.1-1.95-.17-.78-.08-1.56-.17-2.34-.27-.53-.07-1.06-.16-1.59-.23-.26-.04-.46-.16-.62-.37-.62-.84-1.23-1.69-1.79-2.57-1.68-2.6-3.18-5.31-4.61-8.06-.38-.73-.74-1.47-1.1-2.21-.09-.19-.21-.32-.4-.4-.29-.12-.57-.26-.86-.39-1.99-.86-4.01-1.64-6.04-2.42-.89-.34-1.78-.69-2.7-.95-.31-.09-.62-.2-.93-.31-.28-.1-.51-.26-.66-.52,0-.02-.05-.02-.09-.03-.21,.17-.48,.21-.76,.23-.51,.04-1.01,.11-1.52,.17-.78,.09-1.56,.14-2.35,.15-1.01,.01-2.01-.05-3.02-.1-.72-.04-1.44-.06-2.15-.08-.1,0-.21,0-.31,.01-.1,.01-.16,.1-.15,.2,0,.06,.02,.13,.04,.19,.08,.25,.23,.47,.4,.67,.65,.76,1.48,1.23,2.47,1.41,.66,.12,1.33,.08,1.99,.08,.1,0,.21-.03,.3-.08,.27-.16,.55-.14,.83-.05,1.27,.38,2.56,.62,3.87,.83,1.21,.2,2.41,.43,3.58,.83,.74,.25,1.49,.49,2.15,.93,.12,.08,.25,.14,.38,.2,.26,.13,.51,.26,.77,.39,.25,.12,.49,.25,.74,.36,.38,.17,.77,.33,1.15,.5,.19,.09,.37,.2,.54,.31,.1,.06,.19,.14,.27,.23,.19,.21,.21,.54,.05,.76-.15,.22-.42,.3-.69,.21-.06-.02-.12-.05-.18-.08-1.22-.56-2.44-1.13-3.67-1.69-.31-.14-.63-.26-.95-.38-.34-.13-.68-.25-1-.45-.19-.12-.41-.16-.64-.15-.51,.02-1.02,.05-1.53,.05-.61,0-1.23,0-1.84-.05-.92-.08-1.84-.22-2.76-.33-.22-.03-.44-.04-.66-.04-.14,0-.21,.11-.16,.24,.02,.05,.04,.1,.07,.14,.18,.32,.35,.64,.67,.86,.04,.03,.07,.08,.1,.12,.2,.28,.47,.44,.79,.55,.11,.04,.22,.07,.33,.12,.17,.08,.34,.14,.52,.16,.21,.03,.41,.07,.61,.13,.83,.25,1.67,.43,2.53,.53,.96,.1,1.91,.3,2.87,.44,.19,.03,.38,.09,.54,.22,.18,.14,.38,.27,.57,.41,.51,.39,1.04,.74,1.6,1.06,.11,.06,.23,.12,.29,.25,.12,.25,.25,.49,.35,.74,.15,.36,.27,.73,.4,1.1,.19,.53,.38,1.05,.54,1.59,.26,.88,.5,1.76,.73,2.64,.09,.33,.13,.67,.18,1,.07,.47,.16,.92,.44,1.32,.18,.25,.31,.54,.47,.82,.09,.16,.18,.32,.27,.48,.28,.46,.57,.9,.79,1.4,.04,.08,.09,.16,.14,.24,.16,.24,.32,.48,.47,.72,.27,.43,.52,.88,.79,1.31,.29,.45,.62,.88,.91,1.33,.21,.33,.49,.57,.82,.76,1.13,.67,2.31,1.23,3.51,1.73,.11,.04,.22,.07,.34,.09,.85,.15,1.69,.34,2.52,.58,1.65,.47,3.25,1.07,4.84,1.7,.24,.1,.49,.18,.73,.27v1.57ZM51.26,5.8c-.18,.03-.27,.04-.35,.06-.74,.14-1.48,.3-2.23,.42-.82,.14-1.65,.22-2.49,.22-.27,0-.55,0-.82,0-.04,0-.09,.03-.14,.05,.12,.22,.31,.31,.49,.41,.51,.28,1.04,.48,1.6,.61,.43,.1,.87,.1,1.31-.03,.62-.2,1.24-.37,1.88-.47,.16-.03,.32-.08,.49-.13-.04-.38,0-.74,.25-1.14Zm-8.32-1.51c.13,.26,.32,.45,.56,.59,.27,.16,.57,.24,.88,.3,.48,.1,.96,.1,1.44,.11,.42,0,.83-.03,1.25-.05,.08,0,.19,0,.22-.11-.33-.26-.67-.49-.98-.77-.31-.29-.59-.62-.89-.96-.65,.12-1.29,.35-1.92,.59-.19,.07-.39,.13-.56,.3Zm-11.57,51.46c.29,.28,.55,.5,.78,.77,.23,.26,.42,.56,.64,.85,.25,.02,.49-.04,.73-.1,.42-.1,.83-.21,1.25-.32,.07-.02,.15-.05,.15-.17-.04-.03-.09-.07-.14-.1-.47-.25-.94-.5-1.42-.74-.11-.06-.24-.11-.37-.12-.49-.05-.99-.08-1.48-.12-.03,0-.07,.03-.14,.06ZM52.08,5.41c.33,.08,.95,.12,1.09,.07-.25-.14-.52-.18-.78-.24-.12-.03-.22,.04-.31,.18Z"/>
      <path class="cls-1" d="M19.46,50.35s0,.11-.01,.17c-.05,.28-.3,.5-.57,.5-.25,0-.5-.18-.57-.45-.03-.12-.05-.26-.04-.39,.05-.85-.37-1.53-.81-2.2-.06-.09-.17-.16-.26-.24-.19-.16-.25-.37-.19-.6,.06-.24,.23-.38,.46-.43,.07-.02,.16-.01,.23,0,.11,.04,.22,.09,.31,.16,.1,.07,.19,.15,.26,.24,.6,.79,1.1,1.63,1.14,2.66,0,.18,.03,.36,.05,.57Z"/>
    </g>
    <g>
      <path class="cls-1" d="M36.05,27.37c0-.72-.03-1.2-.18-1.89h3.72c-.12,.57-.18,1.14-.18,1.89v.6h8.31c1.44,0,2.37-.03,3.3-.12-.09,.66-.12,1.2-.12,2.22v2.79c0,.9,.03,1.59,.12,2.31h-3.24v-4.23H28.22v4.23h-3.24c.09-.69,.12-1.29,.12-2.31v-2.79c0-.96-.03-1.53-.12-2.22,.93,.09,1.83,.12,3.3,.12h7.77v-.6Zm-3.69,13.3c-1.59,0-2.22,.03-3.15,.09,.09-.72,.12-1.2,.12-2.67v-3.21c0-.99-.03-1.59-.09-2.25,.63,.09,1.29,.12,2.25,.12h13.18c.9,0,1.53-.03,2.16-.12-.06,.51-.09,1.08-.09,2.34v3.12c0,1.59,.03,2.01,.12,2.67-.96-.06-1.74-.09-3.15-.09h-4.26c-.3,.87-.6,1.59-.93,2.28h7.71c1.41,0,2.04-.03,2.82-.12-.09,.87-.12,1.68-.12,2.91v4.5c0,1.14,.03,1.92,.15,2.94h-3.3v-1.26h-15.52v1.26h-3.33c.12-1.05,.18-1.95,.18-2.97v-4.5c0-1.35-.03-2.04-.15-2.88,.84,.09,1.59,.12,2.79,.12h5.31c.36-.72,.63-1.35,.99-2.28h-3.69Zm-2.1,8.34h15.52v-3.21h-15.52v3.21Zm2.19-11.05h11.17v-2.55h-11.17v2.55Z"/>
      <path class="cls-1" d="M60.97,35.8c0,5.61-.48,9.03-1.65,11.95-.87,2.16-1.68,3.63-2.91,5.31-.87-1.14-1.56-1.86-2.79-2.82,1.26-1.62,1.86-2.67,2.52-4.47,.51-1.29,.84-2.64,1.02-4.17,.12-1.14,.33-4.71,.33-6.06v-6.48c0-1.26-.06-2.13-.21-3.15h3.87c-.15,.78-.18,1.5-.18,3.24v6.66Zm9.54-8.55c-.12,1.05-.18,1.92-.18,3.45v15.37c0,1.8,.06,2.85,.18,3.84h-3.84c.12-1.02,.18-2.07,.18-3.81v-15.4c0-1.65-.06-2.52-.18-3.45h3.84Zm9.57-1.35c-.15,.99-.21,1.83-.21,3.54v19.45c0,1.95,.06,2.94,.21,4.02h-3.87c.12-1.02,.18-2.16,.18-4.02V29.44c0-1.68-.03-2.52-.18-3.54h3.87Z"/>
      <path class="cls-1" d="M99.75,26.08c-.15,.99-.21,2.46-.21,4.65,0,.42,0,.51,.03,1.95,3.6-.03,6.9-.39,8.79-1.02l.3,3.63q-.6,.03-1.95,.18c-2.52,.33-4.68,.48-7.05,.54,.06,2.34,.12,3.69,.33,6.63,1.68,.51,3.09,1.14,4.68,2.04,1.08,.6,1.59,.96,3.87,2.55,.39,.27,.54,.39,.9,.6l-2.34,3.39c-.54-.66-1.02-1.11-2.13-1.98-1.44-1.11-2.37-1.71-3.96-2.46-.39-.21-.63-.33-.96-.54,.03,.24,.06,.51,.06,.96,0,3.36-2.37,5.13-6.84,5.13-3.06,0-5.19-.87-6.3-2.58-.45-.75-.75-1.74-.75-2.67,0-3.12,3.09-5.37,7.41-5.37,1.11,0,2.19,.12,2.79,.3q-.03-.09-.03-.3c-.12-1.08-.39-9.27-.42-13.03-.03-1.5-.03-1.8-.15-2.64l3.93,.03Zm-6.06,18.85c-2.25,0-3.75,.9-3.75,2.22,0,.72,.33,1.2,1.02,1.56,.57,.27,1.38,.45,2.19,.45,1.14,0,2.13-.3,2.73-.81,.42-.36,.63-.93,.63-1.68,0-.54-.03-1.38-.03-1.41-1.11-.27-1.65-.33-2.79-.33Z"/>
      <path class="cls-1" d="M123.35,26.83c-.18,.87-.24,1.74-.36,4.05-.12,2.79-.3,8.88-.3,11.02,0,2.85,.18,3.93,.78,4.83,.69,.99,2.13,1.56,4.02,1.56,3.24,0,5.85-1.83,7.26-5.13,.66-1.56,1.05-2.97,1.38-5.04,1.62,1.32,2.16,1.65,3.63,2.31-1.2,4.05-2.1,6-3.57,7.65-2.25,2.55-5.22,3.81-9,3.81-2.07,0-3.99-.48-5.25-1.32-2.07-1.38-2.94-3.69-2.94-7.71,0-1.56,.06-4.56,.24-12.1,.03-.9,.03-1.53,.03-1.95,0-.84-.03-1.26-.12-2.04l4.2,.06Z"/>
      <path class="cls-1" d="M156.04,26.53c-.09,.27-.18,.6-.24,.93-.06,.39-.09,.54-.18,1.02q-.09,.63-.51,2.88c-.12,.66-.12,.72-.21,1.11,.87-.06,1.29-.09,1.86-.09,1.98,0,3.45,.54,4.44,1.59,1.02,1.14,1.41,2.58,1.41,5.31,0,5.16-.87,9.27-2.31,10.93-.84,.99-1.74,1.35-3.33,1.35-1.38,0-2.61-.24-4.62-.87,.03-.6,.06-1.02,.06-1.32,0-.78-.06-1.38-.3-2.55,1.62,.72,3.33,1.17,4.38,1.17,.87,0,1.35-.57,1.8-2.04,.48-1.56,.78-4.29,.78-6.84,0-2.76-.69-3.57-3.06-3.57-.6,0-1.05,.03-1.74,.09-.9,3.66-1.17,4.56-1.83,6.51-1.05,3-1.86,4.92-3.6,8.43q-.15,.3-.45,.9c-.09,.18-.09,.21-.24,.51l-3.48-1.92c.9-1.2,2.1-3.36,3.12-5.64,1.29-2.94,1.71-4.2,2.91-8.49-1.53,.18-4.38,.69-5.37,.96l-.36-3.54c1.11,0,4.74-.36,6.39-.6,.54-3.24,.78-5.07,.78-6.06v-.57l3.9,.42Zm9.93,3.84c3,3.51,4.89,7.08,6.18,11.71l-3.42,1.74c-.57-2.58-1.26-4.56-2.4-6.81-1.08-2.22-2.04-3.6-3.45-5.13l3.09-1.5Z"/>
      <path class="cls-1" d="M192.33,26.8c-.12,.87-.12,1.11-.15,3.54,1.32,0,2.7,0,4.14-.03-.81-1.71-1.56-2.94-2.73-4.32l2.16-.96c1.14,1.38,1.95,2.67,2.76,4.41l-1.89,.87c.63-.03,.69-.03,1.35-.03,1.62-.03,2.07-.03,2.88-.12l.03,3.45c-1.08-.09-2.7-.15-5.01-.15q-.57,0-3.66,.03v5.25c.66,1.38,.96,2.61,.96,4.23,0,3.3-1.56,6.12-4.47,8.13-1.26,.84-2.64,1.47-5.43,2.43-.81-1.77-1.2-2.37-2.13-3.39,4.89-.84,8.1-3.12,8.58-6.12-.87,1.38-2.43,2.13-4.41,2.13-1.38,0-2.43-.33-3.45-1.08-1.41-1.02-2.07-2.34-2.07-4.05,0-3.18,2.49-5.46,5.94-5.46,1.32,0,2.43,.33,3.12,.9-.03-.09-.03-.15-.03-.18v-.18c-.03-.81-.03-1.65-.03-2.55-3.63,.09-6.18,.18-7.65,.27-5.04,.33-5.28,.36-6.12,.51l-.12-3.6c.66,.06,.93,.06,1.47,.06,.75,0,1.23,0,5.1-.15,1.44-.03,3.87-.09,7.26-.18l-.03-1.89c-.03-.93-.03-1.14-.15-1.77h3.78Zm-9.03,13.96c0,1.35,1.08,2.34,2.55,2.34,1.65,0,2.91-1.14,2.91-2.7,0-.57-.18-1.02-.57-1.35-.51-.45-1.23-.72-1.95-.72-1.71,0-2.94,1.02-2.94,2.43Zm17.41-11.11c-.87-1.8-1.65-3.03-2.67-4.29l2.01-.93c1.14,1.32,1.98,2.58,2.76,4.14l-2.1,1.08Z"/>
    </g>
    <g>
      <path class="cls-1" d="M115.24,17.08c-.69-.73-.97-1.01-1.44-1.42-.32,.45-.53,.69-.91,1.08-.69,.72-1.08,1.04-1.85,1.55-.35-.6-.69-1.05-1.22-1.63,1.19-.73,1.9-1.38,2.53-2.21-.82-.63-1.17-.88-2.21-1.52,.51-1.26,.86-2.4,1.22-3.9h-.32c-.34,0-.66,.03-.98,.07v-1.85c.4,.06,.75,.07,1.3,.07h.34c.18-1.07,.28-2.07,.28-2.56,0-.04,0-.09-.01-.15l2.05,.15c-.04,.21-.06,.26-.16,.95-.09,.64-.13,.92-.26,1.61h1.29c.5,0,.85-.01,1.19-.04q-.01,.37-.04,1c-.06,.91-.18,1.88-.35,2.83-.22,1.16-.45,1.89-.89,2.81,.62,.5,.89,.73,1.63,1.44l-1.17,1.71Zm-1.99-8.04c-.15,.75-.48,1.92-.88,3.12,.47,.32,.59,.41,.91,.63,.5-1.11,.66-1.76,.92-3.75h-.95Zm5.49,1.14c0-.6-.01-.88-.07-1.38h.83c.32-.32,.89-1.07,1.27-1.67h-2.83c-.62,0-1.17,.03-1.67,.07v-1.98c.37,.06,.94,.09,1.7,.09h3.21c.72,0,1.03-.01,1.33-.06l.94,1.17c-.13,.15-.16,.19-.31,.4-1.05,1.52-1.58,2.2-2.45,3.06v.86h1.49c.63,0,1.04-.03,1.51-.09v1.99c-.5-.06-.92-.09-1.51-.09h-1.49v3.94c0,1.39-.42,1.71-2.24,1.71-.38,0-.82-.01-1.42-.04-.1-.81-.21-1.22-.5-1.95,.67,.09,1.2,.15,1.54,.15,.56,0,.66-.04,.66-.29v-3.52h-1.25c-.56,0-1.07,.03-1.58,.09v-1.98c.37,.06,.72,.07,1.54,.07h1.29v-.57Z"/>
      <path class="cls-1" d="M125.93,6.86c.45,.04,.95,.06,1.57,.06,.85,0,2.21-.06,2.8-.13q-.04-.12-.19-.47s-.09-.19-.19-.44c-.15-.37-.19-.47-.31-.67l2.18-.29c.06,.4,.18,.78,.53,1.66,1.46-.21,2.96-.51,3.96-.85l.18,1.83c-1.73,.37-3.02,.63-3.49,.69,.21,.47,.22,.5,.45,.98,1.77-.32,2.64-.53,3.43-.82l.18,1.88c-.19,.03-.78,.15-1.77,.37-.67,.13-.73,.15-1.03,.21,.73,1.23,.92,1.49,1.93,2.7l-1.71,1.01c-.95-.45-1.88-.63-3.22-.63-1.83,0-2.83,.41-2.83,1.14,0,.42,.34,.7,1,.86,.35,.07,1.01,.13,1.51,.13,1.54,0,3.6-.42,4.6-.94l.31,2.12c-.4,.07-.42,.07-1,.22-1.3,.32-2.65,.48-4,.48-2.07,0-3.5-.44-4.19-1.3-.35-.42-.56-1-.56-1.57,0-.97,.66-1.88,1.68-2.31,.82-.37,1.74-.53,2.99-.53,.91,0,1.66,.07,2.37,.23-.09-.1-.12-.13-.29-.38s-.19-.28-.42-.66q-.1-.18-.19-.31c-1.35,.19-2.78,.28-5.65,.37-.26,.01-.38,.01-.64,.04l-.07-1.88c.41,.06,.64,.07,1.41,.07,1.54,0,2.75-.07,4.19-.26-.09-.16-.13-.25-.23-.47-.13-.29-.16-.34-.23-.51-1.51,.15-1.99,.16-4.34,.19-.22,0-.34,0-.59,.01l-.1-1.83Z"/>
      <path class="cls-1" d="M139.62,6.62c.34,.01,.51,.01,.57,.01,.28,0,.37,0,2.45-.13,1.01-.07,3.53-.19,7.56-.37,1.29-.06,1.38-.07,1.64-.13l.12,2.24c-.18-.01-.22-.01-.35-.01-.95,0-2.14,.34-3.12,.89-1.66,.94-2.65,2.3-2.65,3.63,0,1.08,.67,1.88,1.9,2.23,.67,.19,1.63,.34,2.17,.34,.09,0,.19,0,.37-.01l-.31,2.37c-.19-.04-.25-.04-.51-.07-1.64-.19-2.67-.44-3.54-.91-1.52-.79-2.31-2.07-2.31-3.74,0-1.98,1.05-3.59,3.09-4.76-1.46,.16-1.52,.18-4.79,.42-.81,.06-1.6,.16-2.15,.26l-.12-2.27Zm10.21,5.11c-.37-.82-.7-1.36-1.22-2.04l1.25-.56c.51,.62,.83,1.11,1.23,1.98l-1.26,.62Zm1.71-.81c-.37-.78-.69-1.32-1.19-1.96l1.22-.53c.54,.63,.75,.95,1.22,1.88l-1.25,.62Z"/>
      <path class="cls-1" d="M154.19,6.74c.35,.03,.5,.03,.76,.03,.32,0,1.79-.04,5.92-.16-.03-1.1-.03-1.17-.1-1.67h2.21c-.07,.63-.07,.66-.09,1.63,2.48-.01,3.6-.04,4.19-.1v2.02c-.62-.04-.97-.06-2.53-.06-.78,0-.89,0-1.64,.01v.34s.01,.48,.01,.48v1.2c-.01,.06-.01,.16-.01,.34,.38,.73,.54,1.38,.54,2.21,0,1.68-.78,3.05-2.31,4.04-.73,.48-1.48,.81-2.78,1.2-.42-1-.62-1.32-1.22-1.98,1.55-.26,2.58-.66,3.31-1.29,.45-.38,.69-.73,.79-1.2-.51,.57-1.14,.82-2.07,.82-.66,0-1.25-.21-1.76-.59-.66-.51-.98-1.17-.98-2.01,0-1.6,1.29-2.74,3.11-2.74,.57,0,1.04,.12,1.38,.32q0-.06-.01-.23v-.89c-3.49,.1-5.39,.21-6.65,.38l-.06-2.11Zm4.32,5.16c0,.56,.47,.97,1.11,.97,.72,0,1.27-.48,1.27-1.1,0-.53-.45-.89-1.14-.89s-1.25,.44-1.25,1.03Z"/>
      <path class="cls-1" d="M170.15,9.83c-.67,0-1.05,.01-1.42,.07v-1.99c.4,.06,.69,.07,1.42,.07h2.05v-1.44c0-.86-.01-1.23-.09-1.76h2.15c-.07,.5-.09,.89-.09,1.76v9.92c0,.92,.01,1.32,.09,1.85h-2.15c.07-.51,.09-.97,.09-1.88v-1.44c-.81,.44-1.55,.81-2.5,1.22-.32,.13-.48,.21-.69,.31l-.6-2.07c.44-.07,.75-.16,1.22-.34,1.2-.45,1.71-.67,2.58-1.11v-3.18h-2.05Zm7.53,5.96c0,.31,.18,.38,.92,.38,.94,0,1.25-.09,1.39-.38,.16-.31,.23-1.29,.23-2.8,.64,.32,1.17,.54,1.83,.73-.09,2.23-.35,3.31-.94,3.78-.44,.35-1.04,.45-2.58,.45-1.23,0-1.73-.04-2.07-.19-.53-.25-.73-.64-.73-1.45V6.55c0-.88-.01-1.27-.09-1.76h2.11c-.07,.51-.09,.92-.09,1.76v2.62c1.29-.75,2.52-1.7,3-2.31l1.38,1.63c-.16,.1-.28,.19-.44,.34-.41,.32-1.6,1.14-2.31,1.58-.56,.34-1.01,.59-1.63,.91v4.48Z"/>
      <path class="cls-1" d="M196.49,17.73c-.41-.06-.89-.09-1.68-.09h-9.13v.64h-2.04c.06-.54,.09-.98,.09-1.74V6.83c0-.63-.01-1.08-.06-1.57,.47,.04,.85,.06,1.61,.06h9.23c.89,0,1.35-.03,1.8-.09v1.96c-.5-.06-.89-.07-1.76-.07h-8.88V15.84h9.11c.89,0,1.32-.01,1.7-.07v1.96Zm-2.34-2.3c-1.23-1.26-1.85-1.83-2.94-2.75-1.35,1.33-2.34,2.07-4.06,3-.41-.54-.83-1-1.39-1.51,1.58-.75,2.77-1.55,3.97-2.7-1.08-.83-1.88-1.36-3.21-2.18l1.35-1.35c1.63,1.05,1.95,1.27,3.16,2.14,.83-1.03,1.52-2.21,1.74-2.96l1.9,.88c-.23,.35-.26,.4-.48,.78-.47,.85-1,1.6-1.67,2.43,1.17,.92,1.83,1.48,3.13,2.68l-1.51,1.54Z"/>
    </g>
  </g>
</svg>